<svg xmlns="http://www.w3.org/2000/svg" xmlns:xlink="http://www.w3.org/1999/xlink" viewBox="0 0 37.01 44.02"><defs><style>.cls-1{fill:none;}.cls-2{clip-path:url(#clip-path);}.cls-3{fill:#c93a3a;}.cls-4{opacity:0.1;isolation:isolate;}</style><clipPath id="clip-path" transform="translate(0)"><rect class="cls-1" width="37" height="44"/></clipPath></defs><g id="Layer_2" data-name="Layer 2"><g id="Layer_1-2" data-name="Layer 1"><g id="Layer_2-2" data-name="Layer 2"><g id="Layer_1-2-2" data-name="Layer 1-2"><g class="cls-2"><path class="cls-3" d="M37,42a.49.49,0,0,1,0,.17A.49.49,0,0,0,37,42Z" transform="translate(0)"/><path class="cls-3" d="M1,4.41C1.65,2.17.84,1.28.84,1.28L2.47,0c1.32,2.17.23,5.2.23,5.2a19.14,19.14,0,0,0-.51,5s.36,7.44,6.25,4.16,8.79,1.55,8.79,1.55l.85,6.93L23.84,20c1.35,1.21,4.18,1.62,5.64,2.2C34.12,24,36.65,26.23,37,33a9.33,9.33,0,0,0-2.09-1.43,4.53,4.53,0,0,0-2.74-.3c-2.23.4-5,3-8.75,2.39-2.61,0-7.63-4.74-8.37-5.57-1.71-1.78-4.23-1.21-5.7-.67a2.51,2.51,0,0,1-.94.15,2.46,2.46,0,0,1-.92-.24A5.32,5.32,0,0,1,5.37,24.6c-.62-1.47-1-4.05-3.35-7.45C-1.82,12.1,1,4.41,1,4.41Z" transform="translate(0)"/><path class="cls-4" d="M14.52,16.49a5.92,5.92,0,0,1,1-2.35l.74.55Z" transform="translate(0)"/><path class="cls-4" d="M25.34,20.85a13.4,13.4,0,0,1-1.94,3,14,14,0,0,0-2.22,3.74,2.31,2.31,0,0,1-.45.81A2.35,2.35,0,0,1,20,29a2.23,2.23,0,0,1-2.7-.57,19.24,19.24,0,0,0-2.55-2.86l.14-1,9-4.63A5.21,5.21,0,0,0,25.34,20.85Z" transform="translate(0)"/><path class="cls-3" d="M14.52,16.34s1-2.65,7-3.47c0,0,3.29-.51,3,3.64a15,15,0,0,1-2.07,6.63,13.45,13.45,0,0,0-1.6,3.64,2.2,2.2,0,0,1-.33.86,2.4,2.4,0,0,1-.65.66,1.8,1.8,0,0,1-2.49-.52,25.5,25.5,0,0,0-2.68-2.62" transform="translate(0)"/><path class="cls-3" d="M8.71,29.93s.54-.28.88-.42a4.57,4.57,0,0,1,5.26.78c.74.81,5.88,5.21,8.49,5.21,3.77.64,6.66-2.6,8.89-3a4.45,4.45,0,0,1,2.74.3A20.79,20.79,0,0,1,37,34v9.42a.58.58,0,0,1-.58.58H31.76a.58.58,0,0,1-.58-.58h0v-4.3a.37.37,0,0,0-.05-.18.4.4,0,0,0-.13-.13.34.34,0,0,0-.17-.05h-.19A13.21,13.21,0,0,1,15.48,37a.58.58,0,0,0-.3-.13.59.59,0,0,0-.32.05.64.64,0,0,0-.25.21.56.56,0,0,0-.09.31v6a.58.58,0,0,1-.58.58H9.3a.58.58,0,0,1-.58-.58V29.93Z" transform="translate(0)"/></g></g></g></g></g></svg>